PathFileType	4	(X/Y/Z)	D:\TRACE\spotREDO_2-26-24\spot_baseline_4-v60.trc
DataRate	CameraRate	NumFrames	NumMarkers	Units	OrigDataRate	OrigDataStartFrame	OrigNumFrames
100.00	100.00	      35	9	mm	100.00	1751	      7000
Frame#	Time	front left toe			Front right toe			aft left toe			aft right toe			Arm			FL body			FR body			AL Body			AR Body			
		X1	Y1	Z1	X2	Y2	Z2	X3	Y3	Z3	X4	Y4	Z4	X5	Y5	Z5	X6	Y6	Z6	X7	Y7	Z7	X8	Y8	Z8	X9	Y9	Z9	

1751	17.500	-243.97256	24.70606	-221.65842	323.36816	24.95125	-144.83020	-255.87602	21.94042	272.01422	248.22667	27.23922	355.24973	86.09457	806.72321	-320.01019	-4.56233	549.12341	-304.56467	150.28404	550.67596	-286.86871	-113.06570	567.50122	572.39636	34.67915	564.71344	591.34003	
1752	17.510	-243.89590	24.75838	-221.73505	323.42673	24.93504	-144.88580	-255.81389	21.93905	271.95148	248.28116	27.19187	355.24588	86.83539	806.76807	-320.75897	-3.66432	549.15717	-305.47681	150.97800	550.76477	-287.96912	-112.05268	567.41608	571.27765	35.82298	564.85162	590.58191	
1753	17.520	-243.82869	24.82404	-221.80496	323.41058	24.78405	-145.03922	-255.77362	21.96817	271.96829	248.24812	27.05750	355.15790	87.78515	806.74377	-321.93079	-2.59831	548.96411	-306.39020	152.16768	550.96246	-288.85263	-111.59930	567.45526	570.27594	36.62019	564.66248	589.40369	
1754	17.530	-243.76608	24.88033	-221.85745	323.64096	24.79171	-145.03557	-255.63315	22.02788	271.92215	248.33939	26.91857	355.02197	88.56035	806.63184	-322.78101	-1.70270	548.91809	-307.22690	152.84628	550.94995	-289.89966	-110.39223	567.27832	569.32837	37.12533	564.87653	588.09485	
1755	17.540	-243.69777	24.91713	-221.93431	323.82504	24.77164	-145.07553	-255.54056	22.13740	271.89673	248.26723	26.66032	354.96136	89.41637	806.75159	-323.81549	-0.72943	549.11078	-308.54251	153.93318	551.04028	-290.92276	-109.56819	567.15588	568.24493	38.30995	564.63947	587.34808	
1756	17.550	-243.64961	25.01648	-222.03200	325.04443	25.61136	-144.75253	-255.50638	22.17968	271.82193	248.37209	26.52741	354.85153	90.30485	806.98651	-325.01260	0.21693	549.24475	-309.76785	154.98351	551.13367	-292.14685	-108.35686	567.06506	567.19965	39.15480	564.68219	586.08545	
1757	17.560	-243.51785	25.01912	-222.11771	323.97357	24.58313	-145.13246	-255.39275	22.24865	271.76926	248.61465	26.51509	354.84106	91.24507	807.18073	-326.15356	1.45065	549.23157	-310.78979	156.49611	551.44043	-293.11063	-107.70713	566.68622	565.79150	40.39921	564.71381	585.38306	
1758	17.570	-243.46674	25.04915	-222.24516	325.23370	25.52144	-144.70935	-255.36754	22.23512	271.67688	248.86160	26.79997	355.11856	92.38200	807.21100	-327.05121	2.75800	548.97107	-311.74451	157.42508	551.58282	-294.31836	-106.54202	566.45355	564.69843	41.27984	564.45227	583.80731	
1759	17.580	-243.43471	25.11741	-222.37233	325.31699	25.43840	-144.78687	-255.46049	22.26155	271.61377	248.82375	26.72541	355.01804	93.08335	807.13855	-328.21863	3.93533	549.06543	-313.21985	158.55362	551.52063	-295.42004	-105.26214	566.19031	563.54999	42.37318	564.22375	582.52563	
1760	17.590	-243.31155	25.12933	-222.43930	325.28879	25.47542	-144.73456	-255.28578	22.25960	271.51392	248.97658	26.72642	355.10193	94.21451	807.24005	-329.65549	5.12949	549.15778	-314.64780	159.96121	551.63239	-296.78403	-104.32320	566.04010	562.18365	43.27258	564.18933	581.36108	
1761	17.600	-243.24698	25.28875	-222.62816	325.45517	25.26713	-144.76547	-255.22604	22.38902	271.47943	248.98709	26.68678	355.04465	95.42986	807.30316	-330.96051	6.59367	549.14020	-315.77176	161.26859	551.72400	-298.14313	-103.14490	565.82806	560.77240	44.51625	564.03894	580.03925	
1762	17.610	-243.16080	25.39688	-222.72749	325.58005	25.29499	-144.81471	-255.18980	22.43289	271.43954	249.21500	26.74769	355.13391	96.73618	807.42566	-332.26065	7.98372	548.90680	-317.19620	162.61455	551.74042	-299.45966	-101.88179	565.71198	559.33459	45.87449	563.97675	578.60577	
1763	17.620	-243.05426	25.57079	-222.82507	325.64679	25.14378	-144.76746	-255.09161	22.46942	271.40298	249.34943	26.79964	355.16269	98.09566	807.23340	-333.55444	9.61602	548.92725	-318.64450	164.04893	551.80933	-300.93155	-100.42967	565.54187	557.95251	47.46776	563.79547	577.04865	
1764	17.630	-243.06300	25.52132	-222.72504	325.65253	25.16120	-144.81863	-254.87761	22.24154	271.41141	249.27846	26.75534	355.20517	99.24378	807.08618	-335.22852	11.08008	548.78003	-320.21829	165.55998	551.85010	-302.56351	-98.76126	565.15833	556.41040	48.96622	563.59717	575.35950	
1765	17.640	-243.15955	25.53099	-222.81898	324.42581	24.66101	-145.78589	-255.08952	21.81126	271.68518	249.05812	26.67503	355.25354	100.99304	807.05322	-336.79688	12.96846	548.64063	-321.88107	167.47740	551.71204	-304.23117	-97.10897	564.72852	554.66321	50.46245	563.36975	573.74078	
1766	17.650	-243.18454	25.28728	-223.20723	324.10928	23.58840	-145.57767	-255.78456	23.04473	270.78189	249.35089	26.74088	355.06763	102.83787	807.22729	-338.50281	14.83407	548.77826	-323.72623	169.41907	551.77405	-305.99548	-95.06426	564.39697	552.96741	52.49094	563.09491	571.99805	
1767	17.660	-242.34987	25.53304	-223.69225	324.70883	23.42140	-145.73836	-260.81079	30.53333	272.38043	249.99535	25.82918	354.96564	104.86370	807.29828	-340.35968	16.95937	548.96100	-325.88422	171.88045	552.28864	-307.68439	-94.10007	563.12604	550.73297	53.67573	562.22778	570.09113	
1768	17.670	-241.78238	25.72285	-224.33556	325.34210	23.59626	-145.47383	-255.89528	37.75385	280.22607	250.04524	25.19234	355.09930	106.57658	807.96423	-341.79007	19.58343	549.04919	-327.67322	174.11369	553.32507	-309.88138	-93.13803	561.29272	548.63275	54.55509	561.17224	568.16895	
1769	17.680	-240.76297	25.87745	-224.83981	325.91293	23.89197	-145.94078	-257.15070	48.80600	287.06805	249.98706	25.41794	355.14157	107.26976	808.66339	-343.17184	22.22164	548.93500	-329.59235	176.75560	553.73566	-311.12354	-91.87849	560.28784	546.52759	55.54007	560.73297	566.25012	
1770	17.690	-240.48730	26.10305	-224.88724	326.05804	23.51488	-145.70819	-257.16516	60.65503	288.59573	249.95772	25.85352	355.00577	108.85795	808.80621	-344.70416	24.00898	548.44049	-331.37567	178.49139	553.51990	-312.84146	-90.23231	560.04602	544.97052	57.51665	560.59698	564.87366	
1771	17.700	-241.07373	25.85091	-224.57033	326.10489	22.63260	-145.98650	-259.64267	73.83401	285.27438	249.95236	25.63323	354.98709	110.47492	808.25043	-346.37244	25.46295	547.80988	-332.94809	179.95139	552.91644	-314.41293	-88.42712	560.04126	543.33966	59.04070	560.85394	563.05731	
1772	17.710	-241.15872	25.92883	-224.56120	326.35541	22.55655	-145.98605	-263.16626	87.33552	279.54681	250.12343	25.21749	354.99304	112.16573	807.09735	-348.18716	26.85894	547.27686	-334.34811	181.40855	552.46985	-315.92847	-86.79817	559.77191	542.00305	60.75425	561.01147	561.47913	
1773	17.720	-241.01463	26.03754	-224.67938	326.25244	22.65067	-146.15074	-261.48843	99.69584	276.14468	250.19264	25.13523	355.02591	112.79603	806.39417	-350.04898	28.27101	546.93994	-335.55417	182.74660	552.41742	-317.15201	-85.19554	559.47351	540.56476	62.54113	560.64764	560.35815	
1774	17.730	-240.79292	26.16669	-224.86786	326.29126	22.68030	-146.18979	-263.23724	108.59105	277.89233	250.19063	25.08950	354.95770	113.97649	805.93304	-351.29575	29.49332	546.62408	-337.06644	184.05635	552.21185	-318.57916	-83.93137	559.04187	539.17639	64.02311	560.25018	559.23065	
1775	17.740	-240.75201	26.49025	-224.75697	326.49203	22.66264	-146.17223	-262.09131	116.46811	282.19583	250.08810	25.03436	354.92212	114.89826	805.98303	-352.56064	30.84135	546.23566	-338.51047	185.45589	552.16302	-319.82364	-82.99072	558.47644	537.85785	64.59785	559.76526	557.58081	
1776	17.750	-240.57167	26.58768	-224.85216	326.71909	22.60720	-146.10928	-264.40433	124.46215	286.55310	250.12686	25.02835	354.96365	115.53111	805.93658	-353.76697	32.17086	545.90784	-339.55206	186.64485	551.90320	-321.27307	-81.74010	558.03113	536.64471	65.74626	559.45581	556.35272	
1777	17.760	-240.48981	26.55077	-224.81345	326.64786	22.35435	-146.35077	-266.84238	131.15581	289.05405	250.19347	25.07006	354.94519	116.66218	805.80945	-354.67117	33.11649	545.65948	-340.85788	187.68613	551.48132	-322.36951	-80.42355	557.84094	535.46167	67.04805	559.26312	555.25317	
1778	17.770	-240.57059	26.60467	-224.80901	326.67081	22.21761	-146.47121	-269.90271	138.51787	288.59747	250.19164	25.03656	354.91052	117.59031	805.30835	-356.01431	33.88135	545.33063	-341.69348	188.08867	551.09167	-323.68042	-79.19656	557.78448	534.45209	68.40524	558.99780	553.98199	
1779	17.780	-240.63292	26.67376	-224.81139	326.78107	22.25230	-146.44705	-272.91977	143.22517	287.56967	250.19920	25.00118	354.74915	118.79485	804.80853	-356.92783	34.49541	545.06647	-342.91174	188.96280	550.63403	-324.55109	-77.69746	557.61438	533.66406	69.86036	558.84717	553.11627	
1780	17.790	-240.59930	26.65307	-224.81540	326.92017	22.34580	-146.49475	-274.59601	144.53140	287.94498	250.26230	24.96220	354.75653	119.66080	804.49988	-358.13678	35.16351	544.75287	-343.59317	189.56320	550.35394	-325.87833	-76.85292	557.46155	532.68848	70.86443	558.66479	552.19226	
1781	17.800	-240.55606	26.67196	-224.83238	326.74469	22.26552	-146.54355	-276.54431	143.68094	289.85449	250.25177	24.63157	354.66522	120.05132	804.28314	-359.05017	35.93307	544.63245	-344.53537	190.43741	550.23236	-326.44302	-75.67017	557.26447	532.10138	72.20903	558.36810	551.71893	
1782	17.810	-240.49893	26.71592	-224.84850	327.02310	22.29301	-146.45186	-277.93146	141.67357	292.18445	250.39966	24.60113	354.68536	121.07074	804.22345	-359.57886	36.41539	544.53973	-345.34213	190.98938	550.19232	-327.39017	-75.18483	557.01782	531.08130	72.80309	558.07111	550.77692	
1783	17.820	-240.49243	26.81438	-224.88052	327.14215	22.40547	-146.43605	-279.65399	140.90475	294.57428	250.21373	24.49621	354.64929	121.34521	804.42377	-360.36752	37.37240	544.51184	-346.09558	191.85368	550.17694	-327.90570	-74.60938	556.64294	530.41998	73.13770	557.98584	549.88177	
1784	17.830	-240.42867	26.88355	-224.91750	327.12106	22.40385	-146.42845	-280.82571	140.53085	296.48022	250.32838	24.55162	354.59399	121.71120	804.41425	-360.74805	37.83237	544.51147	-346.91083	192.58487	550.10864	-328.66174	-73.79922	556.31812	529.68274	73.51133	557.73157	549.21448	
1785	17.840	-240.36826	26.88381	-224.95737	327.27850	22.41117	-146.36833	-283.97537	141.34027	297.71872	250.52988	24.57117	354.55698	122.29437	804.22388	-361.52362	38.29021	544.37170	-347.52655	192.80571	550.07147	-329.38925	-73.49994	556.07159	528.80560	74.14677	557.66400	548.64203	
